<svg width="350" height="350" viewBox="0 0 350 350" fill="none" xmlns="http://www.w3.org/2000/svg">
<rect width="350" height="350" fill="#4E9249"/>
<path d="M66.75 196.5V172.75H103.5C113.417 172.75 121.125 170.125 126.625 164.875C132.208 159.625 135 152.25 135 142.75C135 132.333 132.208 124.333 126.625 118.75C121.125 113.083 113.417 110.25 103.5 110.25H67.25L64.25 86.5H103.5C121.917 86.5 136.125 91.1667 146.125 100.5C156.208 109.833 161.25 123.083 161.25 140.25C161.25 158.083 156.208 171.917 146.125 181.75C136.125 191.583 121.917 196.5 103.5 196.5H66.75ZM42.5 264V86.5H68.5V264H42.5ZM137.75 264L98 180.5H125.5L167.75 264H137.75ZM197.5 264V86.5H223.5V264H197.5ZM197.5 194.5V170.75H292.5V194.5H197.5ZM197.5 110.25V86.5H315V110.25H197.5Z" fill="#E9DDD4"/>
</svg>
